<svg xmlns="http://www.w3.org/2000/svg" aria-hidden="true" style="position:absolute;width:0;height:0;overflow:hidden">
<defs>
<symbol id="icon-antenna-1" viewBox="0 0 32 32"><path d="m30.77 22.1-8.44-8.5.94-4.62c.24.1.5.14.75.14h.01a2.16 2.16 0 1 0-2-1.43l-4.97.6L8.97.16A.53.53 0 0 0 8.6 0a.53.53 0 0 0-.37.16l-1.51 1.5c-.2.2-.2.55 0 .75l.81.83a14.94 14.94 0 0 0 2.52 17.66c.05.04.1.08.15.1-.04.18-.05.36-.05.55v6.18h-6.4a2.67 2.67 0 0 0-2.67 2.67v1.07c0 .3.24.53.53.53h24.54c.29 0 .53-.24.53-.53V30.4c0-1.47-1.2-2.66-2.67-2.66h-6.4v-2.75a14.85 14.85 0 0 0 10.09-1.46l.82.82a.53.53 0 0 0 .75 0l1.51-1.5c.2-.2.2-.54 0-.75zM23.28 6.23a1.07 1.07 0 1 1 .75 1.82 1.07 1.07 0 0 1-.75-1.82zm-1.26 3.5-.6 2.95-1.17-1.18 1.78-1.76zm-.6-.9-1.92 1.92L18 9.25l3.4-.41zM24 28.8c.89 0 1.6.72 1.6 1.6v.53H2.14v-.53c0-.88.71-1.6 1.6-1.6H24zm-7.46-2.13v1.06H11.2v-1.06h5.34zM11.2 25.6v-4.05c0-1.3 1.2-2.35 2.67-2.35s2.67 1.05 2.67 2.35v4.05H11.2zm6.4-1.7v-2.35c0-1.89-1.67-3.42-3.73-3.42a3.8 3.8 0 0 0-3.28 1.79A13.87 13.87 0 0 1 8.31 4.03l18.6 18.71a13.82 13.82 0 0 1-9.3 1.16zm11.3-.68L7.83 2.04l.75-.75 7.94 7.98 13.12 13.2-.76.75z"/><path d="M13.88 20.27a1.6 1.6 0 1 0-.01 3.2 1.6 1.6 0 1 0 0-3.2zm.37 1.98c-.1.1-.24.15-.38.15a.53.53 0 0 1 0-1.07.53.53 0 0 1 .37.92z"/></symbol>
<symbol id="icon-astronaut-1" viewBox="0 0 32 32"><path d="M31.97 4.52a.53.53 0 0 0-.43-.36l-1.9-.28-.86-1.73c-.18-.36-.78-.36-.96 0l-.85 1.73-1.91.28a.54.54 0 0 0-.3.91l1.38 1.35-.32 1.9c-.04.2.05.4.21.52.17.12.38.14.56.04l1.71-.9 1.71.9a.54.54 0 0 0 .78-.56l-.33-1.9 1.38-1.35c.15-.14.2-.35.14-.55zm-2.46 1.33a.53.53 0 0 0-.15.47l.19 1.12-1-.53a.53.53 0 0 0-.5 0l-1 .53.2-1.12a.53.53 0 0 0-.16-.47l-.81-.79 1.12-.16a.53.53 0 0 0 .4-.3l.5-1 .5 1c.08.16.23.27.4.3l1.12.16-.8.8zM26.13 20.52h-1.06v1.07h1.06v-1.07zM26.13 22.66h-1.06v1.06h1.06v-1.06zM27.2 21.59h-1.07v1.07h1.07v-1.07zM25.07 21.59H24v1.07h1.07v-1.07zM22.4 26.39h-1.07v1.07h1.07v-1.07zM22.4 28.52h-1.07v1.07h1.07v-1.07zM23.47 27.46H22.4v1.06h1.07v-1.06zM21.33 27.46h-1.06v1.06h1.06v-1.06zM16 24.26h-1.07v1.06H16v-1.06zM16 26.39h-1.07v1.07H16v-1.07zM17.07 25.32H16v1.07h1.07v-1.07zM14.93 25.32h-1.06v1.07h1.06v-1.07zM5.87 6.12H4.8V7.2h1.07V6.12zM5.87 8.26H4.8v1.06h1.07V8.26zM6.93 7.19H5.87v1.07h1.06V7.19zM4.8 7.19H3.73v1.07H4.8V7.19z"/><path d="M24.71 14.16c-.28-.39-.7-.64-1.18-.7-.48-.07-.96.05-1.34.35l-1.26.96-1.9 1.41-1.35-.54A6.94 6.94 0 0 0 14.83 2.4a6.96 6.96 0 0 0-6.96 6.93c0 1.39.42 2.68 1.12 3.76l-2.76-.02H6.2l-.16.03-.03.02h-.02l-3.24 1.6-1.89.9a1.78 1.78 0 0 0 .93 3.3c.3.01.58-.06.84-.2l1.4-.74 2.26-1.17h1.35L2.2 22.2.86 23.55a1.65 1.65 0 0 0 0 2.35 1.67 1.67 0 0 0 2.36 0l1.31-1.3 1.74-1.3.9.89-1.76 1.75-1.34 1.34a1.65 1.65 0 0 0 0 2.36 1.67 1.67 0 0 0 2.36 0l3.48-3.47 1.01-1 .02-.02 5.17-5.66 3.47.5h.07c.07 0 .13-.02.2-.04l.04-.02.06-.03 3.21-2.13.03-.03.04-.03 1.27-1.19c.67-.62.76-1.63.22-2.36zM2.14 17.77a.71.71 0 0 1-.56.05.72.72 0 0 1-.21-1.26l1.31-.63.45 1.31-.99.53zm3.5-1.83-1.55.8-.44-1.28 2.03-1-.04 1.48zm15.1-6.62c0 .92-.22 1.79-.6 2.56l-4.18-1.9a1.86 1.86 0 0 0-.8-1.39l1.47-4.86a5.88 5.88 0 0 1 4.1 5.6zm-11.8 0a5.89 5.89 0 0 1 6.65-5.81l-1.44 4.75h-.05a1.87 1.87 0 1 0 0 3.73c.7 0 1.3-.38 1.62-.95l3.86 1.76A5.9 5.9 0 0 1 8.94 9.32zm5.96.8a.8.8 0 0 1-1.6 0 .8.8 0 0 1 1.6 0zM2.46 25.15a.6.6 0 0 1-.85 0 .6.6 0 0 1 0-.85l.96-.96.85.85-.96.96zm3.22 3.73a.6.6 0 0 1-.86 0 .6.6 0 0 1 0-.84l.97-.96.85.85-.96.95zm3.48-3.47-1.77 1.76-.85-.85 1.76-1.75c.05-.04.07-.09.1-.14l.02-.04c.02-.04.02-.08.03-.13l.01-.07-.02-.1c0-.04 0-.07-.02-.1a.55.55 0 0 0-.09-.14l-.02-.04-1.61-1.6-.06-.04a.5.5 0 0 0-.09-.05.51.51 0 0 0-.09-.04.5.5 0 0 0-.1-.02.5.5 0 0 0-.1 0l-.1.03a.48.48 0 0 0-.1.04l-.06.03-1.77 1.33-.9-.9 2.4-2.39 4.36 4.3-.93.91zm6.82-7.02h-.05a.56.56 0 0 0-.3.08.5.5 0 0 0-.08.06l-.04.03-4.7 5.15-4.33-4.26 2.84-2.82a.53.53 0 0 0-.38-.9H6.72l.03-1.6 3.1.02a6.95 6.95 0 0 0 6.26 1.98c.04.03.08.07.13.09l2.41.96.15.75.18.89-3-.43zm4.04.18-.31-1.56 1.44-1.08.95 1.26-2.08 1.38zm3.75-2.83-.83.79-.94-1.24.84-.64a.73.73 0 0 1 .54-.14.72.72 0 0 1 .4 1.23z"/><path d="m13.6 18.54-2.14-2.13a.53.53 0 0 0-.75 0l-2.15 2.13a.54.54 0 0 0 0 .76l2.15 2.13a.54.54 0 0 0 .75 0l2.14-2.13a.54.54 0 0 0 0-.76zm-2.52 1.76L9.7 18.92l1.38-1.38 1.39 1.38-1.39 1.38zM17.16 5.07l-.25 1.04c.07.01 1.73.45 1.73 2.15h1.07c0-2.02-1.66-2.97-2.55-3.19zM19.71 9.32h-1.07v1.07h1.07V9.32z"/></symbol>
<symbol id="icon-clock-1" viewBox="0 0 32 32"><path d="M31.3 15.3a15.3 15.3 0 1 0-19.96 14.58l.18.03c.12 0 .24-.03.35-.1.13-.07.23-.2.28-.35L16 17.21a1.91 1.91 0 1 0-.84-3.63l-5.1-5.1a.64.64 0 0 0-.9.9l5.1 5.1c-.4.8-.17 1.77.53 2.31l-3.68 11.67a14.04 14.04 0 1 1 10.57-.35l-.4-1.87a.64.64 0 0 0-1.04-.34l-3.84 3.42a.64.64 0 0 0 .23 1.09l4.9 1.56a.64.64 0 0 0 .82-.74l-.4-1.84A15.26 15.26 0 0 0 31.3 15.3zM16 14.66a.64.64 0 1 1 0 1.28.64.64 0 0 1 0-1.28zm2.1 14.87 2.18-1.95.6 2.84-2.79-.9z"/><path d="M15.35 3.19v1.27a.64.64 0 1 0 1.28 0V3.19a.64.64 0 0 0-1.28 0zM3.88 14.66a.64.64 0 0 0 0 1.28h1.27a.64.64 0 1 0 0-1.28H3.88zM28.1 15.94a.64.64 0 1 0 0-1.28h-1.27a.64.64 0 0 0 0 1.28h1.28z"/></symbol>
<symbol id="icon-diagram-1" viewBox="0 0 32 32"><path d="M14.93 14.96h1.06v4.8h-1.06v-4.8zM19.19 17.1h1.07v2.66h-1.07V17.1zM10.66 18.7h1.07v1.06h-1.07V18.7zM7.46 18.16h1.07v1.6H7.46v-1.6z"/><path d="M1.6 28.3h25.59c.88 0 1.6-.73 1.6-1.6v-2.14c0-.88-.72-1.6-1.6-1.6h-.54V9.66l3.03-2.86a1.6 1.6 0 1 0-.75-.76L26.65 8.2V6.97c0-.88-.71-1.6-1.6-1.6H3.73c-.88 0-1.6.72-1.6 1.6v16H1.6c-.88 0-1.6.7-1.6 1.6v2.12c0 .89.72 1.6 1.6 1.6zM30.38 4.83a.53.53 0 1 1 0 1.06.53.53 0 0 1 0-1.06zM3.2 6.97c0-.3.24-.53.53-.53h21.32c.3 0 .54.23.54.53V9.2l-1.07 1.01V8.03c0-.29-.24-.53-.53-.53H4.79c-.29 0-.53.24-.53.53v13.33c0 .3.24.53.54.53h19.19c.3 0 .53-.23.53-.53V11.7l1.07-1.01v12.28H3.19v-16zM8 13.9a1.6 1.6 0 1 0 1.1 2.75l1.86.93c.21.1.47.06.63-.12l3.94-4.44 3.87 2.9c.21.16.5.14.69-.03l3.36-3.2v8.14H5.33V8.57h18.12v2.66l-3.77 3.57-3.9-2.93a.53.53 0 0 0-.72.08l-4 4.49-1.49-.75c.02-.06.02-.13.02-.19 0-.88-.71-1.6-1.6-1.6zm.53 1.6a.53.53 0 1 1-1.07 0 .53.53 0 0 1 1.07 0zm3.2 8.53h5.33v.53c0 .3-.24.53-.53.53h-4.27a.53.53 0 0 1-.53-.53v-.53zm-10.66.53c0-.3.24-.53.53-.53h9.06v.53c0 .88.72 1.6 1.6 1.6h4.26c.89 0 1.6-.72 1.6-1.6v-.53h9.06c.3 0 .54.24.54.53v2.13c0 .3-.24.53-.53.53H1.59a.53.53 0 0 1-.52-.53v-2.13z"/></symbol>
<symbol id="icon-envelope" viewBox="0 0 43 32"><path d="M38.67 0H4a4 4 0 0 0-4 4v24a4 4 0 0 0 4 4h34.67a4 4 0 0 0 4-4V4a4 4 0 0 0-4-4zm0 2.67c.18 0 .35.03.5.1L21.34 18.24 3.5 2.77c.16-.07.33-.1.51-.1h34.67zm0 26.66H4c-.74 0-1.33-.6-1.33-1.33V5.59L20.46 21a1.33 1.33 0 0 0 1.75 0L40 5.59V28c0 .74-.6 1.33-1.34 1.33z"/></symbol><symbol id="icon-facebook-1" viewBox="0 0 32 32"><path d="M21.33 5.31h2.92V.23C23.75.15 22.01 0 19.99 0c-4.2 0-7.1 2.65-7.1 7.52V12H8.26v5.69h4.65V32h5.7V17.69h4.46l.7-5.69H18.6V8.08c0-1.64.45-2.77 2.74-2.77z"/></symbol><symbol id="icon-instagram-2" viewBox="0 0 32 32"><path d="M31.97 9.4a11.7 11.7 0 0 0-.74-3.87 7.8 7.8 0 0 0-1.86-2.84A7.87 7.87 0 0 0 26.54.84C25.52.45 24.36.17 22.66.1 20.95.02 20.4 0 16.06 0s-4.89.02-6.6.1C7.76.16 6.6.43 5.58.83a7.8 7.8 0 0 0-2.84 1.85A7.87 7.87 0 0 0 .9 5.52C.5 6.54.23 7.7.16 9.4c-.08 1.71-.1 2.26-.1 6.6s.02 4.9.09 6.6c.08 1.7.35 2.87.74 3.88a7.9 7.9 0 0 0 1.85 2.84c.8.81 1.77 1.44 2.84 1.84 1.02.4 2.18.67 3.88.75 1.7.07 2.25.09 6.6.09s4.88-.02 6.59-.1a11.7 11.7 0 0 0 3.88-.74 8.18 8.18 0 0 0 4.68-4.68c.4-1.02.67-2.18.75-3.88.07-1.7.09-2.25.09-6.6s0-4.89-.08-6.6zm-2.88 13.07a8.76 8.76 0 0 1-.55 2.97 5.31 5.31 0 0 1-3.04 3.04c-.56.22-1.41.48-2.97.55-1.69.07-2.2.1-6.46.1s-4.79-.02-6.47-.1a8.76 8.76 0 0 1-2.97-.55 4.93 4.93 0 0 1-1.84-1.2 4.97 4.97 0 0 1-1.19-1.83 8.81 8.81 0 0 1-.55-2.97c-.07-1.69-.1-2.2-.1-6.47s.03-4.78.1-6.46c.07-1.56.33-2.4.55-2.97.26-.7.66-1.32 1.2-1.84a4.97 4.97 0 0 1 1.84-1.19A8.81 8.81 0 0 1 9.6 3c1.69-.07 2.2-.1 6.46-.1 4.28 0 4.78.03 6.47.1 1.56.07 2.4.33 2.96.55.7.26 1.33.66 1.84 1.2.53.51.94 1.14 1.2 1.83.22.57.48 1.42.55 2.97.07 1.69.1 2.2.1 6.46s-.03 4.77-.1 6.46z"/><path d="M16.06 7.78a8.22 8.22 0 1 0 0 16.45 8.22 8.22 0 0 0 0-16.45zm0 13.55a5.33 5.33 0 1 1 0-10.66 5.33 5.33 0 0 1 0 10.67zM26.52 7.46a1.92 1.92 0 1 1-3.83 0 1.92 1.92 0 0 1 3.83 0z"/></symbol>
<symbol id="icon-linkedin-1" viewBox="0 0 32 32"><path d="M32 32V20.26c0-5.74-1.24-10.16-7.95-10.16-3.23 0-5.39 1.77-6.27 3.45h-.1v-2.92h-6.36V32h6.63V21.42c0-2.79.52-5.48 3.97-5.48 3.4 0 3.45 3.18 3.45 5.66V32H32zM.53 10.64h6.63V32H.53V10.64zM3.84 0C1.72 0 0 1.72 0 3.84s1.72 3.88 3.84 3.88A3.88 3.88 0 0 0 7.7 3.84 3.85 3.85 0 0 0 3.84 0z"/></symbol><symbol id="icon-Logo1" viewBox="0 0 56 32"><path d="M26.29 3.49c.12 0 .25 0 .38.02h.04c.62.05 1.24.14 1.85.28V2.3a11 11 0 0 0-2.69-.34h-.22c-1.3 0-2.6.17-3.85.5-1.43.35-2.8.91-4.08 1.65V19a16.62 16.62 0 0 1 7.16-2.02h.04l.56-.01v-1.53a18.01 18.01 0 0 0-5.72 1l-.54.18V5.01l.23-.11a14.83 14.83 0 0 1 6.2-1.42H26.29zm2.64 1.53A16.49 16.49 0 0 0 34 4.54a16.7 16.7 0 0 0 3.9-1.52v14.63a15.72 15.72 0 0 1-7.93 2.16c-1 0-1.97-.1-2.93-.34V4.74a12.16 12.16 0 0 0 1.9.28zm7.45.12-.53.18a18.02 18.02 0 0 1-6.86.98l-.42-.03V18.2l.36.04a14.09 14.09 0 0 0 4.5-.4c.94-.24 1.85-.57 2.72-.98l.23-.11V5.14zM18.75 24.1a.78.78 0 0 0-.6-.25.86.86 0 0 0-.6.24.87.87 0 0 0-.23.6v1.99c0 .14.02.28.08.4a.7.7 0 0 0 .47.4c.1.04.2.06.3.06a.84.84 0 0 0 .82-.84v-.22h-.52v.17l-.03.18a.32.32 0 0 1-.08.11.37.37 0 0 1-.22.08c-.04 0-.09 0-.13-.02s-.08-.05-.11-.09a.47.47 0 0 1-.07-.27V24.8c0-.1.02-.2.07-.3a.26.26 0 0 1 .25-.12.28.28 0 0 1 .23.11c.06.08.1.17.09.27v.17h.51v-.2a.94.94 0 0 0-.24-.63zM21.84 24.07a.9.9 0 0 0-1.18 0 .82.82 0 0 0-.2.28.95.95 0 0 0-.08.38v1.91c0 .14.02.27.08.4.05.1.11.19.2.26a.9.9 0 0 0 1.18 0 .8.8 0 0 0 .2-.27.94.94 0 0 0 .07-.39v-1.9a.87.87 0 0 0-.27-.66zm-.25 2.57a.35.35 0 0 1-.1.28.38.38 0 0 1-.49 0c-.04-.04-.06-.08-.08-.13s-.03-.1-.02-.15v-1.9a.35.35 0 0 1 .1-.28.38.38 0 0 1 .5 0c.03.03.06.08.07.12s.03.1.02.15v1.91zM25.9 27.5v-3.62h-.5l-.66 1.91-.67-1.9h-.5v3.6h.52v-2.2h.01l.5 1.56h.26l.51-1.55h.01v2.2h.52zM28.83 24.14a.72.72 0 0 0-.3-.2 1.16 1.16 0 0 0-.37-.06h-.76v3.62h.51v-1.41h.27c.16 0 .32-.03.46-.1a.85.85 0 0 0 .4-.6 2.57 2.57 0 0 0-.02-.92.77.77 0 0 0-.19-.33zm-.26 1.1c0 .06-.02.13-.05.18a.29.29 0 0 1-.14.13.52.52 0 0 1-.24.05h-.23v-1.23h.26a.5.5 0 0 1 .23.04c.06.03.1.08.12.14.03.06.05.13.05.2v.48zM31.27 23.88h-.42l-.8 3.62h.52l.15-.78h.7l.15.78h.52l-.82-3.62zm-.48 2.35.26-1.31.26 1.3h-.52zM34.6 26.06h-.01l-.78-2.18h-.5v3.62h.52v-2.18h.01l.79 2.18h.48v-3.62h-.51v2.18zM37.74 23.88l-.41 1.44h-.01l-.42-1.44h-.54l.7 2.09v1.52h.52v-1.52l.7-2.09h-.54zM17.31 28.52h.25v.7h.17v-.7h.25v-.15h-.67v.14zM19.4 28.37l-.33.84h.18l.07-.19h.33l.08.2h.18l-.33-.85h-.18zm-.03.51.11-.31.12.31h-.23zM21.46 28.9h.2v.11a.33.33 0 0 1-.2.07.21.21 0 0 1-.18-.08.35.35 0 0 1-.07-.22c0-.19.09-.28.25-.28.04 0 .08 0 .12.03s.06.06.07.1l.16-.03c-.03-.16-.15-.24-.35-.24-.11 0-.22.03-.3.1a.42.42 0 0 0-.12.33c0 .11.03.22.11.31a.4.4 0 0 0 .32.12.5.5 0 0 0 .35-.13v-.33h-.36v.14zM23.57 28.37h-.17v.84h.58v-.14h-.41v-.7zM25.35 28.37h-.17v.84h.17v-.84zM27.09 28.93l-.35-.56h-.16v.84h.16v-.55l.33.55h.17v-.84h-.15v.56zM28.66 28.84h.42v-.14h-.42v-.19h.45v-.14h-.62v.84h.64v-.14h-.47v-.23zM32.48 28.7h-.33v-.33h-.17v.84h.17v-.37h.33v.37h.17v-.84h-.17v.33zM34.06 28.84h.42v-.14h-.42v-.19h.45v-.14h-.62v.84h.64v-.14h-.47v-.23zM36.2 28.84c.16-.02.23-.1.23-.23a.2.2 0 0 0-.08-.19.47.47 0 0 0-.25-.05h-.35v.84h.16v-.35h.04c.03 0 .07 0 .1.02.03.01.05.04.06.06l.19.27h.2l-.1-.17a.58.58 0 0 0-.2-.2zm-.16-.11h-.13v-.22h.14c.06 0 .11 0 .17.02l.03.04v.1c0 .02-.03.03-.04.04a.47.47 0 0 1-.17.02zM37.83 28.84h.42v-.14h-.42v-.19h.45v-.14h-.62v.84h.64v-.14h-.47v-.23z"/></symbol>
<symbol id="icon-Logo2" viewBox="0 0 57 32"><path d="M19.42 26.19h.02l.02.01.12.12a.95.95 0 0 1-.33.2c-.15.06-.3.09-.46.08-.15 0-.3-.02-.44-.07a.94.94 0 0 1-.33-.2.88.88 0 0 1-.21-.3 1.02 1.02 0 0 1-.07-.4.91.91 0 0 1 .3-.7c.1-.1.22-.16.35-.2a1.39 1.39 0 0 1 .87-.02c.11.05.22.1.3.18l-.09.12-.02.02a.06.06 0 0 1-.04.01l-.04-.01-.06-.03-.07-.04a.82.82 0 0 0-.23-.07 1.11 1.11 0 0 0-.5.04.68.68 0 0 0-.42.39c-.03.1-.05.2-.05.3 0 .11.02.22.06.32a.69.69 0 0 0 .4.39c.1.03.2.05.3.05l.18-.01a.69.69 0 0 0 .38-.17.09.09 0 0 1 .06-.02zM22.78 25.63c0 .13-.03.27-.08.4-.05.1-.13.21-.22.3s-.22.15-.35.2c-.28.1-.6.1-.88 0a1.03 1.03 0 0 1-.34-.2.9.9 0 0 1-.22-.31c-.1-.26-.1-.53 0-.79a.94.94 0 0 1 .22-.3c.1-.1.21-.16.34-.2.28-.1.6-.1.88 0a.91.91 0 0 1 .64.9zm-.31 0c0-.1-.02-.21-.06-.32a.65.65 0 0 0-.4-.38c-.2-.07-.43-.07-.64 0a.68.68 0 0 0-.25.15.63.63 0 0 0-.15.23.93.93 0 0 0 0 .64.64.64 0 0 0 .4.38c.2.07.44.07.64 0a.66.66 0 0 0 .4-.38c.04-.1.06-.21.06-.32zM25.07 25.96l.03.07.03-.07a.68.68 0 0 1 .04-.07l.74-1.17.04-.04a.2.2 0 0 1 .07 0h.22v1.9h-.26v-1.53l-.75 1.2-.05.04a.14.14 0 0 1-.06.01h-.04L25 26.3a.1.1 0 0 1-.04-.05l-.77-1.2V26.57h-.25v-1.9h.22a.2.2 0 0 1 .06 0l.04.04.76 1.18.04.07zM27.86 25.86v.72h-.29v-1.9h.65c.12 0 .25 0 .36.04.1.02.19.06.26.12a.5.5 0 0 1 .14.18c.04.08.06.16.05.25a.55.55 0 0 1-.2.43.75.75 0 0 1-.26.13c-.12.03-.24.04-.35.04h-.36zm0-.2h.36a.8.8 0 0 0 .22-.03.51.51 0 0 0 .16-.08.36.36 0 0 0 .13-.29c.01-.05 0-.1-.02-.15s-.06-.1-.1-.13a.62.62 0 0 0-.4-.1h-.35v.78zM31.77 26.58h-.23a.1.1 0 0 1-.06-.01.13.13 0 0 1-.04-.05l-.2-.46h-1l-.2.46a.1.1 0 0 1-.1.06h-.23l.87-1.9h.3l.9 1.9zm-1.44-.7h.82l-.34-.78a1.28 1.28 0 0 1-.07-.18l-.03.1a.98.98 0 0 1-.03.08l-.35.77zM33.03 24.68l.04.04 1.28 1.43v-1.48h.25v1.91h-.2a.16.16 0 0 1-.05-.04l-1.27-1.44v1.48h-.26v-1.9H33.03zM36.75 25.82v.76h-.3v-.76l-.8-1.15h.26c.03 0 .05 0 .07.02l.04.04.5.74a1.32 1.32 0 0 1 .09.17l.03-.08a.74.74 0 0 1 .05-.09l.5-.74a.18.18 0 0 1 .04-.04.1.1 0 0 1 .06-.02h.26l-.8 1.15zM24.92 21.47l.39.04c1.96-.77 3.62-2.02 4.77-3.6s1.74-3.4 1.7-5.28l-2.17-1.87c.44 1.98.24 4.04-.6 5.93s-2.24 3.55-4.09 4.78z"/><path d="m24.15 21.38.06.01c1.97-1.22 3.48-2.94 4.32-4.92s.98-4.13.4-6.18l-3.08-2.67c1.25 2.2 1.75 4.66 1.45 7.1s-1.4 4.74-3.15 6.66zM34.6 14.84a9.62 9.62 0 0 1-3.63 5.28c-.53.4-1.1.76-1.72 1.07 1.49-.38 2.86-1.05 4-1.97s2.03-2.04 2.6-3.3l-1.25-1.08z"/><path d="m34.1 14.54-1.77-1.55c-.04 1.77-.61 3.49-1.67 4.99s-2.56 2.73-4.35 3.56c.4 0 .8-.02 1.2-.06 1.67-.6 3.15-1.54 4.3-2.75s1.94-2.65 2.3-4.19zM24.4 6.49 22.3 4.64c-1.9.64-3.53 1.76-4.68 3.21a8 8 0 0 0-1.78 4.95c0 1.95.76 3.84 2.15 5.38s3.32 2.63 5.5 3.1c1.94-2.06 3.08-4.6 3.25-7.26s-.65-5.3-2.32-7.53zM39 14.26c0-2.32-1.06-4.54-2.95-6.18s-4.44-2.56-7.1-2.56c-1.23 0-2.45.2-3.6.58l12.99 11.28c.44-1 .67-2.05.67-3.13z"/></symbol>
<symbol id="icon-Logo3" viewBox="0 0 57 32"><path d="M12.88 11.26c-1.28 0-2.32.92-2.32 2.05 0 1.14 1.04 2.06 2.32 2.06 1.28 0 2.31-.92 2.31-2.06 0-1.13-1.03-2.05-2.31-2.05zM29.97 10.6c0-1.58-.71-3.1-1.97-4.21s-2.95-1.75-4.73-1.75c-1.78 0-3.48.63-4.74 1.75s-1.96 2.63-1.97 4.2v8.71s13.4-1.32 13.41-8.7zM5.87 22.16c0 1.1.5 2.15 1.37 2.93s2.05 1.21 3.29 1.22c1.24 0 2.42-.44 3.3-1.22s1.36-1.83 1.36-2.93V16.1s-9.32.93-9.32 6.06zm4.66 1.09c-.24 0-.48-.07-.68-.19s-.36-.29-.45-.48c-.09-.2-.12-.42-.07-.63s.17-.4.34-.56c.17-.15.38-.25.62-.3s.48-.01.7.07c.23.08.42.22.56.4s.2.39.2.6a1 1 0 0 1-.36.77 1.29 1.29 0 0 1-.87.32zM19.96 22.65h-.9v.93h-.47V21.3h1.48v.38h-1.01v.59h.9v.38zm2.25-.16c0 .23-.04.42-.12.59a.9.9 0 0 1-.85.53c-.19 0-.35-.05-.5-.14s-.26-.22-.35-.39a1.34 1.34 0 0 1-.12-.58v-.1c0-.23.04-.43.12-.6a.9.9 0 0 1 .85-.53c.19 0 .36.05.5.14.15.09.27.22.35.4.08.16.12.36.12.58v.1zm-.48-.1c0-.24-.04-.42-.12-.55s-.21-.18-.37-.18a.42.42 0 0 0-.36.18.95.95 0 0 0-.13.54v.11c0 .23.04.41.12.54s.21.2.37.2.28-.07.37-.19c.08-.12.12-.3.12-.54v-.11zm2 .59a.24.24 0 0 0-.1-.2 1.2 1.2 0 0 0-.33-.15c-.16-.06-.3-.1-.39-.16-.25-.14-.38-.33-.38-.56 0-.13.03-.23.1-.33s.17-.17.3-.23c.13-.05.27-.08.43-.08.17 0 .31.03.44.09s.22.14.3.25.1.23.1.36h-.47c0-.1-.03-.18-.1-.24s-.15-.08-.27-.08c-.12 0-.2.02-.27.07a.23.23 0 0 0-.1.19c0 .07.04.14.12.19.07.05.18.1.33.14.26.08.46.18.58.3s.18.26.18.44c0 .2-.07.35-.22.46a.98.98 0 0 1-.6.17c-.18 0-.34-.03-.48-.1-.15-.06-.26-.15-.33-.26s-.11-.24-.11-.39h.47c0 .25.15.38.45.38.1 0 .2-.02.26-.07.06-.04.09-.1.09-.19zm2.5-1.3h-.7v1.9h-.46v-1.9h-.7v-.38h1.86v.38zm1.64.91h-.9v.61h1.06v.38H26.5V21.3h1.52v.38h-1.05v.54h.9v.37zm1.27.15h-.37v.84h-.47V21.3h.84c.27 0 .48.06.63.18s.22.3.22.51a.7.7 0 0 1-.1.39.69.69 0 0 1-.31.25l.5.93v.02h-.51l-.43-.84zm-.37-.38h.38c.11 0 .2-.03.27-.08.06-.06.1-.15.1-.25s-.03-.2-.1-.26c-.06-.06-.15-.09-.28-.09h-.37v.69zm2.84.41v.8h-.47V21.3h.89c.17 0 .32.03.45.1s.23.15.3.26c.07.12.1.25.1.4 0 .22-.08.4-.23.52a.95.95 0 0 1-.63.2h-.41zm0-.37h.42c.12 0 .22-.03.28-.1.07-.05.1-.13.1-.24 0-.11-.03-.2-.1-.27s-.16-.1-.27-.1h-.43v.7zm2.97.2h-.9v.6h1.05v.38h-1.52V21.3h1.52v.38h-1.05v.54h.9v.37zm2.17-.92h-.7v1.9h-.47v-1.9h-.68v-.38h1.85v.38zm1.64.91h-.9v.61h1.05v.38h-1.52V21.3h1.52v.38h-1.05v.54h.9v.37zm1.27.15h-.37v.84h-.47V21.3h.84c.27 0 .48.06.63.18s.22.3.22.51a.7.7 0 0 1-.1.39.69.69 0 0 1-.31.25l.49.93v.02h-.5l-.43-.84zm-.37-.38h.37c.12 0 .21-.03.28-.08.06-.06.1-.15.1-.25s-.04-.2-.1-.26c-.06-.06-.15-.09-.28-.09h-.37v.69zm2.75.62a.24.24 0 0 0-.1-.2 1.2 1.2 0 0 0-.33-.15c-.16-.06-.29-.1-.39-.16-.25-.14-.38-.33-.38-.56 0-.13.03-.23.1-.33s.17-.17.3-.23c.13-.05.27-.08.44-.08.16 0 .3.03.43.09s.23.14.3.25c.07.1.1.23.1.36h-.47c0-.1-.03-.18-.1-.24s-.15-.08-.27-.08c-.12 0-.2.02-.27.07a.23.23 0 0 0-.1.19c0 .07.04.14.12.19.07.05.18.1.33.14.26.08.46.18.58.3s.18.26.18.44c0 .2-.07.35-.22.46a.98.98 0 0 1-.6.17c-.18 0-.34-.03-.48-.1a.68.68 0 0 1-.44-.65h.47c0 .25.15.38.45.38.1 0 .2-.02.26-.07.06-.04.1-.1.1-.19z"/></symbol><symbol id="icon-Logo4" viewBox="0 0 57 32"><path d="M14.27 23.86c.13.15.2.33.2.52 0 .12-.02.25-.07.36s-.14.22-.24.3a1.4 1.4 0 0 1-.88.24h-1.55v-3.3h1.52c.3-.02.6.06.84.22a.7.7 0 0 1 .3.62c0 .18-.06.35-.18.5a.84.84 0 0 1-.46.26c.2.03.39.13.52.28zm-1.82-.5h.65c.15.01.3-.03.41-.11.05-.04.1-.09.12-.15s.03-.11.02-.17c0-.06 0-.12-.03-.18s-.06-.1-.1-.14a.67.67 0 0 0-.43-.11h-.64v.86zm1.13 1.27c.05-.04.1-.1.12-.15s.04-.13.03-.19c0-.06 0-.13-.03-.18s-.07-.12-.12-.16a.71.71 0 0 0-.44-.12h-.68v.91h.68c.16.01.31-.03.44-.11zM17.37 25.28l-.84-1.3h-.32v1.3h-.73v-3.3h1.38c.34-.03.69.07.95.28.2.18.31.41.33.66s-.06.5-.22.7c-.17.18-.4.3-.66.34l.9 1.32h-.79zm-1.16-1.74h.6c.4 0 .61-.17.61-.5a.46.46 0 0 0-.15-.37.69.69 0 0 0-.47-.14h-.6l.01 1zM21.34 24.61h-1.45l-.25.67h-.76L20.2 22h.83l1.32 3.27h-.76l-.25-.67zm-.2-.5-.52-1.39-.53 1.4h1.05zM26.3 25.28h-.72l-1.61-2.25v2.25h-.72v-3.3h.72l1.61 2.25v-2.25h.73v3.3zM30.42 24.49a1.5 1.5 0 0 1-.66.58c-.3.14-.66.22-1 .2h-1.3v-3.3h1.3c.34 0 .69.07 1 .2.28.14.5.34.66.58a1.8 1.8 0 0 1 0 1.74zm-.83-.08c.2-.22.32-.5.32-.79s-.11-.57-.32-.79c-.25-.2-.57-.3-.9-.28h-.5v2.14h.5c.33.02.65-.08.9-.28zM21.79 3.6s9.3 3.22 9.1 7.88v7.86s-9.3-3.21-9.1-7.86V3.6zM39.18 17.5a13.5 13.5 0 0 1 5.9-2v-2.45a11.95 11.95 0 0 0-5.9 4.45z"/><path d="M38.12 18.25a12.32 12.32 0 0 1 6.97-5.72v-7.1s-13.25 4.58-12.97 11.2v11.21s.6-.2 1.52-.59c0-.36 0-.72.04-1.08a11.35 11.35 0 0 1 4.44-7.93z"/><path d="M36.86 22.4c.07-.77.23-1.54.47-2.29a10.37 10.37 0 0 0-2.8 6.77c.74-.33 1.62-.74 2.54-1.23-.23-1.07-.3-2.16-.2-3.24zM37.4 22.45c-.1.98-.04 1.97.15 2.94 3.62-1.99 7.69-5.05 7.53-8.75v-.33c-2.58.27-5 1.3-6.88 2.95-.44 1.02-.71 2.1-.8 3.19z"/></symbol>
<symbol id="icon-Logo5" viewBox="0 0 57 32"><path d="M28.5 14.62a1.58 1.58 0 0 1-.33-1.06v-1.54c0-.47.1-.83.32-1.08s.58-.36 1.1-.36c.5 0 .84.1 1.05.31.22.27.33.6.3.92v.36h-.87v-.36c0-.12 0-.24-.03-.36a.35.35 0 0 0-.12-.21.5.5 0 0 0-.32-.09.53.53 0 0 0-.33.09.41.41 0 0 0-.15.24c-.02.12-.03.25-.03.38v1.86c-.01.18.02.36.11.53.05.05.1.1.18.12s.15.04.22.03c.11 0 .23-.02.31-.08a.38.38 0 0 0 .13-.23c.02-.12.03-.25.03-.37v-.38h.87v.34c.03.35-.08.69-.3.97-.2.23-.54.34-1.05.34s-.88-.12-1.1-.37zM32.14 14.63c-.22-.24-.34-.59-.34-1.05v-1.61c0-.46.11-.8.34-1.04s.59-.35 1.1-.35c.52 0 .89.12 1.1.35.23.23.34.58.34 1.04v1.61c0 .46-.11.81-.33 1.05s-.6.36-1.1.36c-.51 0-.9-.12-1.11-.36zm1.51-.39a.9.9 0 0 0 .1-.47v-1.98a.88.88 0 0 0-.1-.47c-.04-.06-.1-.1-.17-.13s-.16-.04-.23-.03c-.08 0-.16 0-.24.03s-.13.07-.18.13a.85.85 0 0 0-.1.47v1.99c-.01.16.03.33.1.48.06.05.12.09.19.12s.15.04.22.04c.08 0 .16-.02.23-.05s.13-.06.18-.11v-.01zM35.73 10.63h.95l.7 2.98.73-2.98h.92l.09 4.3h-.68l-.07-2.99-.7 3h-.54l-.73-3.01-.07 3h-.68l.08-4.3zM40.18 10.63h1.46c.85 0 1.27.4 1.27 1.22 0 .78-.44 1.17-1.33 1.17h-.5v1.91h-.9v-4.3zm1.25 1.84a.7.7 0 0 0 .5-.14.7.7 0 0 0 .13-.49c0-.13-.01-.26-.05-.39 0-.04-.03-.08-.06-.11l-.12-.1a.94.94 0 0 0-.4-.06h-.35v1.29h.35zM44.22 10.63h.97l1 4.3h-.84l-.2-.99h-.87l-.2 1h-.86l1-4.31zm.83 2.81-.34-1.8-.34 1.8h.68zM47 10.63h.63l1.21 2.45v-2.45h.76v4.3H49l-1.23-2.56v2.56H47v-4.3zM51.36 13.3l-1.01-2.67h.85l.61 1.71.58-1.7h.83l-1 2.65v1.64h-.86V13.3zM29.9 16.82v.22h-.75v1.75h-.3v-1.75h-.75v-.22h1.8zM32.2 18.8h-.23a.1.1 0 0 1-.07-.03.1.1 0 0 1-.04-.04l-.21-.47h-1.03l-.21.47c0 .02-.02.04-.03.05a.11.11 0 0 1-.07.02h-.24l.9-1.98h.32l.92 1.97zm-1.5-.74h.86l-.36-.8a1.43 1.43 0 0 1-.06-.2l-.04.11-.03.09-.36.8zM33.77 18.6h.17a1.02 1.02 0 0 0 .28-.06l.12-.05v-.44h-.39l-.02-.02-.02-.01V17.85h.7v.75a1.4 1.4 0 0 1-.6.2l-.27.02c-.16 0-.31-.03-.46-.08a1.1 1.1 0 0 1-.36-.2.96.96 0 0 1-.23-.32.99.99 0 0 1-.09-.4c0-.15.03-.29.08-.42a.9.9 0 0 1 .24-.31c.1-.1.23-.16.36-.2a1.56 1.56 0 0 1 .74-.06 1.21 1.21 0 0 1 .55.23l-.08.12-.03.03h-.04l-.06-.01a1.34 1.34 0 0 1-.09-.05 1.17 1.17 0 0 0-.87-.06c-.1.04-.19.1-.26.16a.7.7 0 0 0-.17.25.92.92 0 0 0 0 .66.76.76 0 0 0 .45.4c.1.03.23.05.35.04zM36.66 18.57h.99v.22h-1.3v-1.97h.32l-.01 1.75zM38.68 18.8h-.31v-1.98h.3v1.97zM39.83 16.83c.02 0 .03.02.05.03l1.32 1.5a.4.4 0 0 1 0-.08v-1.47h.27v1.98h-.22a.18.18 0 0 1-.05-.05l-1.32-1.48V18.79h-.26v-1.97H39.83zM43.75 16.82v.21h-1.1v.66h.9v.2h-.9v.68h1.1v.22h-1.41v-1.97h1.41zM11.29 4.62l13.75 3.37V19.8L11.3 16.43V4.62zM10.4 3.6V17l15.52 3.8V7.42L10.4 3.62z"/><path d="M18.72 27.04 3.2 23.23V9.83l15.52 3.8v13.4z"/><path d="M10.66 4.46 24.24 7.8l-5.78 5L4.88 9.44l5.78-4.99zm-.26-.85L3.2 9.83l15.52 3.8 7.2-6.21L10.4 3.6zM19.6 26.28l6.32-5.46-6.33-1.56v7.02z"/></symbol>
<symbol id="icon-Logo" viewBox="0 0 56 32"><path d="m19.93 4.05 3.68 3.48h-6.82V24.4h17.83v-6.46l3.67 3.48V4.05H19.93zm14.53 13.5L24.04 7.66h10.42v9.87zm-3.23 4.39H19.6V10.58h.82v10.59h10.8v.77zm-8.88 4.72h.36l-.62 1.17v.69h-.33v-.69l-.63-1.17h.36l.43.88.43-.88zm.54 1.86.15-.43h.72l.16.43h.33l-.7-1.86h-.3l-.7 1.86h.34zm.51-1.47.27.77h-.54l.27-.77zm1.71.73a.42.42 0 0 0-.07.24c0 .15.06.28.17.38s.26.15.44.15.34-.05.48-.15l.1.12h.36l-.27-.32c.1-.15.16-.34.16-.57h-.27c0 .13-.03.24-.08.34l-.36-.42.13-.1c.09-.06.15-.12.2-.19s.05-.14.05-.21c0-.12-.04-.22-.13-.3s-.2-.12-.33-.12c-.15 0-.27.04-.36.13s-.14.2-.14.34c0 .06.02.13.05.19s.08.14.15.23c-.14.1-.23.19-.28.26zm.84.41c-.09.07-.19.1-.3.1-.08 0-.16-.02-.21-.07s-.09-.13-.09-.21c0-.1.05-.2.16-.27l.04-.03.4.48zm-.33-.82.14-.1.04-.03c.05-.05.08-.11.08-.18 0-.05-.02-.1-.06-.13s-.08-.05-.14-.05c-.06 0-.1.02-.14.06s-.05.1-.05.16c0 .07.04.16.13.27zm3.04 1.01a.75.75 0 0 1-.52.17c-.14 0-.28-.04-.39-.1s-.2-.18-.26-.31-.1-.28-.1-.45v-.18c0-.17.04-.33.1-.46s.15-.24.27-.31c.11-.07.25-.11.4-.11.2 0 .37.06.5.17s.2.27.22.47h-.33c-.01-.13-.05-.23-.11-.29s-.16-.09-.28-.09c-.14 0-.25.05-.32.16s-.12.25-.12.45v.17c0 .2.04.35.1.46s.19.15.33.15c.12 0 .22-.02.28-.08s.1-.15.13-.29h.32c-.02.2-.1.36-.22.47zm1.9-.26c.06-.14.1-.3.1-.48v-.1c0-.19-.04-.35-.1-.49s-.16-.24-.28-.31c-.11-.07-.25-.11-.4-.11s-.29.04-.4.11c-.12.07-.21.18-.28.32s-.1.3-.1.48v.1c0 .18.04.34.1.48s.16.24.28.31c.12.08.25.11.4.11.16 0 .3-.03.4-.1s.22-.19.28-.32zm-.35-1.06a.8.8 0 0 1 .12.48v.1c0 .2-.04.37-.12.48s-.18.16-.33.16c-.14 0-.25-.06-.33-.17s-.12-.27-.12-.47v-.11c0-.2.04-.36.12-.47s.19-.16.33-.16.25.05.33.16z"/></symbol>
<symbol id="icon-smartphone" viewBox="0 0 20 32"><path d="M17 0H3a3 3 0 0 0-3 3v26a3 3 0 0 0 3 3h14a3 3 0 0 0 3-3V3a3 3 0 0 0-3-3zM3 2h14a1 1 0 0 1 1 1v21H2V3a1 1 0 0 1 1-1zm14 28H3a1 1 0 0 1-1-1v-3h16v3a1 1 0 0 1-1 1z"/><path d="M4.7 27.48c.4.36.4.95 0 1.32s-1.02.36-1.4 0c-.4-.37-.4-.96 0-1.32s1.02-.37 1.4 0z"/></symbol><symbol id="icon-twitter-1" viewBox="0 0 32 32"><path d="M32 6.08c-1.19.52-2.46.87-3.78 1.03a6.52 6.52 0 0 0 2.89-3.62 13.11 13.11 0 0 1-4.16 1.59 6.57 6.57 0 0 0-11.2 5.98A18.57 18.57 0 0 1 2.23 4.2a6.57 6.57 0 0 0 2.02 8.77 6.48 6.48 0 0 1-2.97-.81v.07a6.59 6.59 0 0 0 5.26 6.44 6.55 6.55 0 0 1-2.97.1 6.62 6.62 0 0 0 6.13 4.58 13.18 13.18 0 0 1-9.7 2.7A18.47 18.47 0 0 0 10.06 29c12.08 0 18.68-10 18.68-18.67 0-.29-.01-.57-.03-.85 1.3-.92 2.4-2.07 3.29-3.4z"/></symbol></defs></svg>