<svg xmlns="http://www.w3.org/2000/svg" aria-hidden="true" style="position:absolute;width:0;height:0;overflow:hidden"><defs><symbol id="icon-finger" viewBox="0 0 32 32"><path fill="#fff" d="M26.67 12c-.5 0-.96.13-1.35.37a2.67 2.67 0 0 0-4.37-1.74 2.67 2.67 0 0 0-3.62-.94V2.67a2.67 2.67 0 0 0-5.33 0V20.5c0 .33-.22.5-.32.57s-.35.18-.64.03l-4.28-2.15a2.83 2.83 0 0 0-4.09 2.53v.5c0 .2.08.37.21.5l7.7 7.18a8.64 8.64 0 0 0 5.9 2.33h4.19a8.68 8.68 0 0 0 8.67-8.67v-8.66c0-1.47-1.2-2.67-2.67-2.67zM28 23.33a7.34 7.34 0 0 1-7.33 7.34h-4.18a7.3 7.3 0 0 1-5-1.98L4 21.71v-.22a1.5 1.5 0 0 1 2.16-1.33l4.28 2.14c.62.31 1.35.28 1.95-.09.59-.37.95-1 .95-1.7V2.67a1.33 1.33 0 0 1 2.66 0v10a.67.67 0 1 0 1.34 0V12A1.33 1.33 0 0 1 20 12v.67a.67.67 0 0 0 1.34 0v-.01a1.34 1.34 0 0 1 2.66 0v2a.67.67 0 1 0 1.34 0 1.33 1.33 0 0 1 2.66 0v8.67z" style="fill:var(--color1, #fff)"/></symbol></defs></svg>